####
#
# OBJ File Generated by Meshlab
#
####
# Object LightBunny.obj
#
# Vertices: 65
# Faces: 126
#
####

vn -0.713198 0.640597 0.284577
v -0.914971 1.252279 0.389512
vn 0.582972 0.200799 -0.787289
v -0.583946 1.095820 0.063570
vn -0.322566 -0.337035 -0.884511
v -0.663543 1.428781 -0.504934
vn -0.763924 0.024671 -0.644834
v -0.796721 1.169246 0.041278
vn 0.774031 0.632828 0.020121
v -0.619487 1.480981 -0.388685
vn -0.930813 -0.020865 -0.364899
v -0.855683 0.847653 0.123104
vn -0.234209 0.289183 -0.928181
v -0.614382 0.872047 -0.077495
vn -0.456886 0.098112 -0.884098
v -0.380538 0.612379 -0.161729
vn 0.034337 0.781857 -0.622511
v -0.289310 0.935886 -0.026719
vn 0.467546 0.883009 -0.041187
v -0.370142 0.998796 0.232683
vn 0.611581 0.769004 -0.186016
v 0.312721 0.961896 0.101555
vn 0.379785 -0.603259 0.701314
v 0.194891 0.031227 0.508487
vn -0.391460 0.046980 0.918995
v -0.131186 0.195444 0.602705
vn -0.585339 -0.020534 -0.810529
v -0.336051 0.226970 -0.016571
vn 0.695311 0.674378 0.248509
v 0.662592 0.399771 0.263553
vn 0.775148 -0.613876 0.149341
v 0.639180 0.161003 0.249150
vn -0.264861 -0.692976 0.670547
v -0.351726 0.043005 0.550642
vn 0.187284 -0.968311 0.165222
v 0.219820 0.022300 0.361936
vn 0.639753 0.119397 -0.759250
v 0.320637 0.529245 -0.184321
vn 0.232833 0.388464 -0.891563
v 0.099106 0.653791 -0.267111
vn -0.195950 0.025347 -0.980286
v -0.127922 1.569034 -0.176713
vn 0.411860 -0.278794 -0.867551
v 0.211981 0.217591 -0.241917
vn -0.495141 0.185477 -0.848784
v -0.300489 0.571451 -0.345515
vn 0.194790 -0.791717 -0.579000
v 0.151765 0.035333 -0.160786
vn 0.102973 0.948732 -0.298837
v -0.764208 1.576072 -0.418293
vn -0.091952 0.607951 -0.788632
v -0.159700 0.738938 -0.181910
vn 0.691590 -0.248620 -0.678153
v -0.478959 1.190387 0.107249
vn -0.065440 0.912231 -0.404415
v -0.618780 1.294074 0.120675
vn 0.481010 0.524615 -0.702431
v 0.341180 0.802477 -0.077836
vn 0.835500 -0.117926 0.536688
v -0.063326 1.402228 -0.081771
vn -0.300815 -0.292346 -0.907769
v -0.583853 0.458906 -0.106239
vn -0.756382 -0.214602 -0.617926
v -0.837174 0.551857 -0.027482
vn -0.442001 -0.328366 -0.834752
v -0.444913 0.044218 -0.250808
vn -0.374137 0.156396 -0.914091
v -0.262872 0.188509 -0.237676
vn -0.064678 -0.997635 0.023268
v 0.018003 0.062204 -0.039207
vn -0.549883 -0.778358 -0.302963
v -0.653546 0.052364 -0.014456
vn 0.080230 0.861781 -0.500896
v 0.062044 1.024042 -0.013023
vn 0.043831 0.889844 0.454155
v -0.250810 1.608713 -0.042138
vn 0.796121 -0.032951 -0.604240
v 0.481808 0.309585 -0.023486
vn -0.864109 -0.458016 -0.208656
v -0.643750 0.265658 0.151577
vn 0.377005 -0.876580 -0.299123
v 0.264607 0.023103 0.041213
vn -0.655891 0.752504 -0.059534
v -0.771648 1.301207 0.082778
vn -0.618013 0.450503 -0.644288
v -0.480727 0.176801 -0.024785
vn 0.524784 0.486934 0.698210
v -0.505998 1.303166 0.232476
vn -0.999135 -0.034643 -0.023003
v -0.703258 0.043620 0.235998
vn 0.834140 0.514884 0.197748
v 0.513150 0.414756 0.241990
vn 0.919687 0.283362 -0.271814
v 0.493733 0.706785 0.108324
vn 0.822199 0.399847 0.405106
v 0.435812 0.814896 0.376523
vn 0.647316 -0.117068 0.753178
v 0.447630 0.275932 0.402095
vn -0.990117 -0.140017 0.007943
v -0.966723 0.944637 0.386235
vn 0.525745 0.766514 0.368849
v -0.570121 1.320502 0.449533
vn 0.145977 0.850738 0.504912
v 0.114832 1.039495 0.378734
vn 0.234678 0.288706 0.928210
v -0.510641 0.850401 0.475301
vn -0.636209 -0.298090 0.711604
v -0.800569 0.814954 0.459304
vn 0.200201 -0.242656 0.949230
v 0.062631 0.283521 0.672024
vn -0.241425 -0.020246 0.970208
v -0.657722 0.564372 0.575925
vn -0.170980 -0.644274 0.745438
v -0.283588 0.047560 0.657702
vn -0.873580 -0.321748 0.365152
v -0.907372 0.564492 0.403878
vn -0.574766 0.109677 0.810935
v -0.254938 0.281943 0.465366
vn -0.156201 0.320517 0.934275
v -0.209208 0.689552 0.558913
vn -0.526791 0.087813 0.845446
v -0.630936 0.069239 0.559079
vn -0.378043 -0.004389 0.925778
v -0.420784 0.271368 0.464404
vn 0.343460 0.337395 0.876470
v 0.199481 0.580655 0.642527
vn -0.290218 -0.108111 0.950834
v -0.744277 1.011273 0.708122
vn -0.506409 0.154630 0.848316
v -0.211987 0.620024 0.677034
# 65 vertices, 0 vertices normals


usemtl material_0
vt 0.211400 0.582100
vt 0.206200 0.582500
vt 0.203300 0.576100
f 42/1/42 3/2/3 4/3/4
vt 0.403700 0.890000
vt 0.410900 0.885300
vt 0.411200 0.899800
f 5/4/5 28/5/28 2/6/2
vt 0.244200 0.716600
vt 0.240700 0.714400
vt 0.244000 0.711700
f 5/7/5 3/8/3 25/9/25
vt 0.058000 0.452900
vt 0.048300 0.454800
vt 0.046300 0.447200
f 4/10/4 3/11/3 2/12/2
vt 0.238100 0.602700
vt 0.244100 0.607600
vt 0.240000 0.607500
f 42/13/42 25/14/25 3/15/3
vt 0.287300 0.893800
vt 0.294200 0.889300
vt 0.293800 0.900400
f 3/16/3 5/17/5 2/18/2
vt 0.454700 0.206900
vt 0.455200 0.207800
vt 0.453000 0.208200
f 14/19/14 34/20/34 43/21/43
vt 0.428600 0.241400
vt 0.433800 0.242700
vt 0.434400 0.238900
f 43/22/43 31/23/31 14/24/14
vt 0.428400 0.258300
vt 0.432300 0.258900
vt 0.428800 0.256700
f 8/25/8 14/26/14 31/27/31
vt 0.451600 0.283700
vt 0.452400 0.279100
vt 0.451500 0.278300
f 8/28/8 23/29/23 14/30/14
vt 0.663700 0.161000
vt 0.662800 0.167200
vt 0.663900 0.167200
f 24/31/24 22/32/22 41/33/41
vt 0.741300 0.384800
vt 0.746000 0.387700
vt 0.748300 0.385300
f 29/34/29 47/35/47 19/36/19
vt 0.597700 0.415400
vt 0.602700 0.421000
vt 0.601200 0.416000
f 26/37/26 37/38/37 29/39/29
vt 0.605100 0.396700
vt 0.605200 0.402500
vt 0.607900 0.397700
f 20/40/20 26/41/26 29/42/29
vt 0.674100 0.459600
vt 0.678800 0.460500
vt 0.677900 0.457300
f 37/43/37 11/44/11 29/45/29
vt 0.656500 0.491700
vt 0.655900 0.491900
vt 0.660600 0.492300
f 37/46/37 52/47/52 11/48/11
vt 0.686400 0.480500
vt 0.686700 0.481100
vt 0.683000 0.483500
f 48/49/48 11/50/11 52/51/52
vt 0.334300 0.392900
vt 0.333900 0.392400
vt 0.330700 0.392700
f 54/52/54 64/53/64 50/54/50
vt 0.332500 0.542400
vt 0.330100 0.545500
vt 0.328500 0.542900
f 64/55/64 51/56/51 1/57/1
vt 0.264900 0.431100
vt 0.265500 0.433800
vt 0.264900 0.432700
f 6/58/6 50/59/50 4/60/4
vt 0.263500 0.389400
vt 0.270400 0.391500
vt 0.269800 0.396900
f 2/61/2 7/62/7 4/63/4
vt 0.431200 0.448400
vt 0.435100 0.449400
vt 0.437600 0.449700
f 7/64/7 9/65/9 26/66/26
vt 0.432300 0.447000
vt 0.426500 0.444000
vt 0.432200 0.446300
f 9/67/9 7/68/7 2/69/2
vt 0.499300 0.469400
vt 0.502200 0.469100
vt 0.498000 0.468500
f 37/70/37 9/71/9 10/72/10
vt 0.360300 0.240600
vt 0.355800 0.242400
vt 0.359200 0.241100
f 62/73/62 58/74/58 40/75/40
vt 0.405600 0.360700
vt 0.402000 0.361800
vt 0.401700 0.358700
f 53/76/53 54/77/54 56/78/56
vt 0.761200 0.423600
vt 0.758500 0.425700
vt 0.761600 0.422900
f 11/79/11 48/80/48 47/81/47
vt 0.669700 0.343600
vt 0.668600 0.346000
vt 0.666700 0.345400
f 63/82/63 60/83/60 65/84/65
vt 0.636400 0.145400
vt 0.640000 0.144000
vt 0.636300 0.145200
f 35/85/35 18/86/18 17/87/17
vt 0.811100 0.280300
vt 0.807200 0.280500
vt 0.810600 0.279200
f 15/88/15 39/89/39 46/90/46
vt 0.376400 0.351100
vt 0.374600 0.346500
vt 0.374500 0.349200
f 31/91/31 32/92/32 7/93/7
vt 0.393600 0.377800
vt 0.398300 0.379700
vt 0.397000 0.371200
f 7/94/7 26/95/26 8/96/8
vt 0.410400 0.185500
vt 0.412200 0.189800
vt 0.411400 0.184900
f 33/97/33 43/98/43 34/99/34
vt 0.809300 0.206300
vt 0.810100 0.204200
vt 0.807400 0.202200
f 39/100/39 16/101/16 41/102/41
vt 0.389300 0.200800
vt 0.389900 0.197000
vt 0.391700 0.200300
f 40/103/40 45/104/45 62/105/62
vt 0.515000 0.170100
vt 0.517500 0.171500
vt 0.516400 0.172900
f 59/106/59 17/107/17 13/108/13
vt 0.753200 0.371100
vt 0.754400 0.370600
vt 0.752800 0.372700
f 47/109/47 39/110/39 19/111/19
vt 0.491300 0.268100
vt 0.492900 0.267300
vt 0.493500 0.263600
f 23/112/23 22/113/22 34/114/34
vt 0.521400 0.324900
vt 0.521700 0.323300
vt 0.516100 0.323300
f 20/115/20 22/116/22 23/117/23
vt 0.743500 0.395800
vt 0.751900 0.390900
vt 0.740500 0.405200
f 30/118/30 21/119/21 38/120/38
vt 0.744200 0.387900
vt 0.735100 0.403400
vt 0.735700 0.395400
f 30/121/30 38/122/38 44/123/44
vt 0.623300 0.306500
vt 0.618800 0.309100
vt 0.624800 0.309400
f 19/124/19 22/125/22 20/126/20
vt 0.547300 0.397800
vt 0.551200 0.396600
vt 0.547400 0.396000
f 23/127/23 26/128/26 20/129/20
vt 0.515400 0.392600
vt 0.514200 0.391000
vt 0.518000 0.391100
f 23/130/23 8/131/8 26/132/26
vt 0.505600 0.178400
vt 0.509300 0.180700
vt 0.508100 0.173700
f 33/133/33 34/134/34 24/135/24
vt 0.672100 0.255000
vt 0.664800 0.254200
vt 0.665400 0.258000
f 39/136/39 22/137/22 19/138/19
vt 0.754500 0.418900
vt 0.755500 0.413700
vt 0.754400 0.414300
f 11/139/11 47/140/47 29/141/29
vt 0.674500 0.371300
vt 0.674200 0.371500
vt 0.678500 0.370400
f 19/142/19 20/143/20 29/144/29
vt 0.449200 0.155500
vt 0.453400 0.155900
vt 0.449400 0.155300
f 33/145/33 35/146/35 36/147/36
vt 0.526700 0.448500
vt 0.530200 0.447000
vt 0.524900 0.447300
f 9/148/9 37/149/37 26/150/26
vt 0.488500 0.159100
vt 0.487400 0.157900
vt 0.483900 0.161700
f 24/151/24 35/152/35 33/153/33
vt 0.403300 0.425600
vt 0.400400 0.419100
vt 0.401800 0.426300
f 10/154/10 27/155/27 51/156/51
vt 0.409900 0.415800
vt 0.411700 0.420000
vt 0.408200 0.417500
f 53/157/53 64/158/64 54/159/54
vt 0.447000 0.450000
vt 0.449700 0.453400
vt 0.447400 0.450200
f 10/160/10 51/161/51 53/162/53
vt 0.476500 0.493400
vt 0.476100 0.504800
vt 0.471500 0.490000
f 38/163/38 28/164/28 44/165/44
vt 0.418100 0.544000
vt 0.416100 0.552300
vt 0.412500 0.544000
f 28/166/28 51/167/51 44/168/44
vt 0.595000 0.597800
vt 0.596100 0.602900
vt 0.586200 0.595900
f 21/169/21 28/170/28 38/171/38
vt 0.747700 0.668600
vt 0.743800 0.676200
vt 0.730100 0.667900
f 27/172/27 28/173/28 21/174/21
vt 0.642600 0.802400
vt 0.663000 0.806700
vt 0.654100 0.818400
f 28/175/28 27/176/27 2/177/2
vt 0.537000 0.181700
vt 0.539700 0.176400
vt 0.538400 0.174500
f 34/178/34 22/179/22 24/180/24
vt 0.951200 0.447000
vt 0.966000 0.436500
vt 0.967500 0.443600
f 21/181/21 30/182/30 27/183/27
vt 0.458600 0.263900
vt 0.458700 0.263900
vt 0.458200 0.265500
f 14/184/14 23/185/23 34/186/34
vt 0.355700 0.721300
vt 0.361500 0.729400
vt 0.356500 0.730300
f 25/187/25 42/188/42 5/189/5
vt 0.368200 0.746900
vt 0.367500 0.737500
vt 0.373900 0.746200
f 5/190/5 42/191/42 28/192/28
vt 0.386500 0.365500
vt 0.387500 0.365400
vt 0.385600 0.360600
f 7/193/7 8/194/8 31/195/31
vt 0.405500 0.175500
vt 0.403300 0.172700
vt 0.403000 0.171400
f 43/196/43 33/197/33 36/198/36
vt 0.679100 0.192900
vt 0.679200 0.195600
vt 0.684800 0.193000
f 22/199/22 39/200/39 41/201/41
vt 0.315000 0.292200
vt 0.315200 0.290900
vt 0.311200 0.293000
f 31/202/31 40/203/40 32/204/32
vt 0.454200 0.445700
vt 0.450900 0.443400
vt 0.448800 0.439800
f 10/205/10 9/206/9 2/207/2
vt 0.309600 0.409300
vt 0.307300 0.406900
vt 0.310700 0.408600
f 32/208/32 6/209/6 7/210/7
vt 0.646700 0.154000
vt 0.650500 0.154300
vt 0.646600 0.153200
f 24/211/24 41/212/41 35/213/35
vt 0.585500 0.465900
vt 0.589600 0.467700
vt 0.584700 0.468100
f 53/214/53 52/215/52 10/216/10
vt 0.381800 0.247900
vt 0.383100 0.248600
vt 0.382100 0.243700
f 31/217/31 43/218/43 40/219/40
vt 0.284200 0.453200
vt 0.285100 0.453900
vt 0.288500 0.451400
f 4/220/4 7/221/7 6/222/6
vt 0.387600 0.623000
vt 0.388300 0.627700
vt 0.379000 0.620700
f 51/223/51 28/224/28 42/225/42
vt 0.338300 0.586400
vt 0.337300 0.584400
vt 0.342000 0.586600
f 42/226/42 1/227/1 51/228/51
vt 0.505800 0.242900
vt 0.501000 0.244200
vt 0.503800 0.223500
f 30/229/30 44/230/44 27/231/27
vt 0.272800 0.522200
vt 0.273900 0.518500
vt 0.274700 0.520400
f 42/232/42 4/233/4 50/234/50
vt 0.378600 0.213100
vt 0.378200 0.216200
vt 0.376900 0.217600
f 43/235/43 45/236/45 40/237/40
vt 0.273200 0.530800
vt 0.274500 0.534500
vt 0.272700 0.530500
f 50/238/50 1/239/1 42/240/42
vt 0.346800 0.273500
vt 0.339300 0.256500
vt 0.346500 0.265100
f 10/241/10 2/242/2 27/243/27
vt 0.342700 0.182500
vt 0.339400 0.177800
vt 0.339300 0.179400
f 43/244/43 36/245/36 45/246/45
vt 0.266600 0.368500
vt 0.266800 0.372900
vt 0.266500 0.369900
f 6/247/6 32/248/32 58/249/58
vt 0.837400 0.263300
vt 0.837800 0.263200
vt 0.837200 0.260300
f 39/250/39 15/251/15 16/252/16
vt 0.673200 0.144400
vt 0.672700 0.147900
vt 0.669700 0.147800
f 41/253/41 18/254/18 35/255/35
vt 0.789800 0.308000
vt 0.790800 0.303800
vt 0.788900 0.309100
f 47/256/47 46/257/46 39/258/39
vt 0.794000 0.314400
vt 0.793500 0.315600
vt 0.794200 0.318900
f 46/259/46 47/260/47 48/261/48
vt 0.598200 0.490500
vt 0.594100 0.490200
vt 0.597900 0.490900
f 37/262/37 10/263/10 52/264/52
vt 0.799500 0.312400
vt 0.799600 0.308400
vt 0.798700 0.311400
f 48/265/48 49/266/49 46/267/46
vt 0.384700 0.131400
vt 0.383700 0.131400
vt 0.388200 0.131400
f 45/268/45 36/269/36 17/270/17
vt 0.277600 0.397600
vt 0.274700 0.395800
vt 0.277800 0.398600
f 6/271/6 58/272/58 54/273/54
vt 0.274800 0.416200
vt 0.277200 0.412900
vt 0.275100 0.415100
f 6/274/6 54/275/54 50/276/50
vt 0.398300 0.411700
vt 0.399200 0.412600
vt 0.400500 0.422100
f 51/277/51 27/278/27 44/279/44
vt 0.300100 0.270900
vt 0.300900 0.269100
vt 0.296400 0.271600
f 40/280/40 58/281/58 32/282/32
vt 0.730500 0.141000
vt 0.725600 0.141200
vt 0.730100 0.140800
f 16/283/16 18/284/18 41/285/41
vt 0.690700 0.390300
vt 0.690100 0.394600
vt 0.686600 0.390800
f 63/286/63 52/287/52 60/288/60
vt 0.780700 0.313500
vt 0.779900 0.317400
vt 0.777900 0.317300
f 63/289/63 49/290/49 48/291/48
vt 0.805500 0.267000
vt 0.803100 0.266000
vt 0.802900 0.262500
f 15/292/15 46/293/46 49/294/49
vt 0.532600 0.262500
vt 0.535300 0.262300
vt 0.533200 0.265900
f 59/295/59 13/296/13 65/297/65
vt 0.395500 0.163500
vt 0.397600 0.165200
vt 0.397900 0.164800
f 61/298/61 62/299/62 45/300/45
vt 0.829600 0.227300
vt 0.834100 0.226500
vt 0.833200 0.229800
f 49/301/49 16/302/16 15/303/15
vt 0.385800 0.123900
vt 0.382100 0.125200
vt 0.385600 0.124900
f 17/304/17 61/305/61 45/306/45
vt 0.437000 0.454100
vt 0.434600 0.453000
vt 0.436400 0.450000
f 51/307/51 64/308/64 53/309/53
vt 0.727800 0.395500
vt 0.728500 0.398500
vt 0.725500 0.397400
f 48/310/48 52/311/52 63/312/63
vt 0.771900 0.173800
vt 0.774300 0.177100
vt 0.770200 0.177100
f 18/313/18 16/314/16 49/315/49
vt 0.586100 0.144100
vt 0.591000 0.142000
vt 0.589800 0.143300
f 36/316/36 35/317/35 17/318/17
vt 0.348400 0.358800
vt 0.346400 0.357400
vt 0.348800 0.354600
f 54/319/54 58/320/58 56/321/56
vt 0.763000 0.244400
vt 0.759400 0.247700
vt 0.759600 0.244000
f 49/322/49 63/323/63 55/324/55
vt 0.675800 0.395700
vt 0.672400 0.396100
vt 0.674500 0.392500
f 52/325/52 53/326/53 60/327/60
vt 0.719900 0.141100
vt 0.720900 0.139700
vt 0.721100 0.144300
f 12/328/12 18/329/18 49/330/49
vt 0.488400 0.270300
vt 0.492400 0.270900
vt 0.490500 0.274200
f 60/331/60 62/332/62 59/333/59
vt 0.385200 0.255200
vt 0.387100 0.252300
vt 0.389200 0.253800
f 58/334/58 62/335/62 56/336/56
vt 0.302400 0.443100
vt 0.304000 0.439400
vt 0.304700 0.442500
f 1/337/1 50/338/50 64/339/64
vt 0.522200 0.153000
vt 0.525600 0.154900
vt 0.523100 0.155800
f 17/340/17 57/341/57 13/342/13
vt 0.525300 0.294100
vt 0.528100 0.293400
vt 0.528700 0.298000
f 59/343/59 65/344/65 60/345/60
vt 0.702400 0.141600
vt 0.702100 0.138000
vt 0.705000 0.140300
f 55/346/55 12/347/12 49/348/49
vt 0.448000 0.155900
vt 0.449400 0.152700
vt 0.452400 0.154400
f 62/349/62 61/350/61 17/351/17
vt 0.485600 0.333700
vt 0.489900 0.332100
vt 0.489500 0.334600
f 56/352/56 60/353/60 53/354/53
vt 0.469500 0.279500
vt 0.474300 0.278200
vt 0.474300 0.281700
f 62/355/62 60/356/60 56/357/56
vt 0.471600 0.169100
vt 0.471900 0.164900
vt 0.475400 0.166200
f 62/358/62 17/359/17 59/360/59
vt 0.650500 0.122100
vt 0.650400 0.123500
vt 0.647800 0.122700
f 18/361/18 12/362/12 57/363/57
vt 0.671300 0.136000
vt 0.674000 0.139500
vt 0.671000 0.139200
f 12/364/12 55/365/55 13/366/13
vt 0.562200 0.118300
vt 0.557600 0.119800
vt 0.557100 0.118800
f 18/367/18 57/368/57 17/369/17
vt 0.595500 0.243200
vt 0.598600 0.241600
vt 0.598700 0.244900
f 65/370/65 13/371/13 55/372/55
vt 0.600400 0.126800
vt 0.598500 0.128700
vt 0.599000 0.125200
f 12/373/12 13/374/13 57/375/57
vt 0.654200 0.302400
vt 0.656500 0.305700
vt 0.652700 0.305700
f 55/376/55 63/377/63 65/378/65
# 126 faces, 378 coords texture

# End of File
