####
#
# OBJ File Generated by Meshlab
#
####
# Object LightDragon.obj
#
# Vertices: 137
# Faces: 274
#
####
vn 0.853073 0.175529 0.491382
v 0.178451 0.310372 -0.042000
vn 0.724102 -0.212875 0.656019
v 0.121676 0.212132 -0.085876
vn 0.905888 0.423438 -0.008179
v 0.131329 0.195555 0.182286
vn 0.979864 0.164718 -0.112845
v 0.121060 -0.103524 -0.041881
vn 0.917525 -0.341739 0.203376
v 0.170313 -0.290528 -0.099307
vn 0.992311 -0.084428 -0.090497
v 0.126638 0.098641 0.268674
vn 0.990877 0.104693 0.084861
v 0.136463 -0.108379 0.211200
vn 0.832244 -0.550023 -0.069603
v 0.140948 0.183080 -0.120849
vn 0.867645 -0.460494 -0.187449
v 0.140070 -0.200884 0.204726
vn 0.916539 -0.344495 0.203172
v 0.137396 0.099110 0.118676
vn 0.863466 0.078353 -0.498284
v 0.132590 0.279584 -0.181740
vn 0.556419 0.289105 -0.778984
v 0.097354 -0.016822 0.190249
vn 0.935471 0.329379 -0.128075
v 0.134476 -0.216020 -0.132822
vn 0.696760 -0.047430 -0.715734
v 0.112662 -0.165259 0.136040
vn 0.615346 -0.706643 -0.349292
v 0.087181 0.076972 0.200421
vn 0.878569 -0.322324 0.352453
v 0.131871 -0.234612 0.297669
vn 0.739762 0.630888 0.233951
v 0.088425 -0.121491 -0.182989
vn 0.788542 -0.120594 0.603041
v 0.113302 0.040257 0.336907
vn 0.797363 0.380250 -0.468639
v 0.115369 0.140047 0.045578
vn 0.700237 -0.419154 0.577908
v 0.105257 -0.193515 -0.023384
vn 0.925555 0.340014 -0.166546
v 0.139447 -0.115439 -0.261140
vn 0.722028 0.487009 -0.491425
v 0.098922 -0.112177 -0.091157
vn 0.710207 0.703391 0.029108
v 0.095362 0.323976 -0.148593
vn 0.853537 0.264895 0.448671
v 0.120658 0.139305 0.307057
vn 0.017240 0.921478 -0.388047
v 0.058455 0.233290 0.099727
vn 0.220870 0.080316 0.971991
v 0.067503 0.318678 -0.085061
vn 0.755973 -0.519627 -0.398112
v 0.112442 -0.220803 -0.252939
vn 0.926794 0.299613 -0.226463
v 0.068129 -0.048342 -0.277445
vn 0.908707 -0.011559 0.417275
v 0.061443 -0.060387 -0.206352
vn 0.378952 0.809742 0.448010
v 0.130234 0.406260 0.083731
vn 0.369384 0.682138 -0.631065
v 0.062424 0.309830 -0.306110
vn 0.138162 -0.986008 0.093271
v 0.084229 -0.283482 -0.108932
vn 0.521585 -0.157657 0.838507
v 0.098018 -0.106204 0.277333
vn 0.513868 -0.434904 -0.739458
v 0.076114 -0.229904 -0.323512
vn 0.447874 -0.700563 0.555537
v 0.063861 -0.265603 -0.041437
vn 0.401065 -0.862501 -0.308608
v 0.072514 -0.283610 0.185791
vn 0.857809 -0.162207 0.487702
v 0.064171 0.075753 0.414368
vn 0.314646 -0.948528 -0.035963
v 0.033461 -0.269322 0.312433
vn 0.706112 -0.278675 -0.650958
v 0.082337 0.145473 -0.187628
vn 0.006051 0.304875 -0.952373
v 0.044872 -0.105263 0.120474
vn 0.322004 -0.488703 0.810853
v 0.063846 -0.131844 0.066612
vn 0.715230 -0.201815 -0.669116
v 0.085404 0.230127 -0.217864
vn -0.090601 -0.752922 0.651844
v 0.047999 0.043437 0.137892
vn 0.129391 0.883448 0.450308
v 0.066173 0.230962 0.285073
vn 0.280189 -0.159467 0.946607
v 0.075059 0.137578 -0.045802
vn 0.518969 0.476321 0.709781
v 0.054750 -0.224193 0.352040
vn 0.445463 0.449988 -0.773998
v 0.035990 0.030553 -0.312314
vn -0.041883 0.653286 0.755952
v 0.049103 0.109175 0.376599
vn 0.691262 0.633936 -0.346818
v 0.011607 0.282393 -0.320683
vn 0.573905 0.085391 -0.814458
v 0.039946 -0.121178 -0.354889
vn 0.368865 0.928260 -0.047662
v 0.016654 -0.081142 -0.127120
vn 0.152825 0.973337 -0.171057
v 0.049335 0.345123 -0.172374
vn 0.152913 -0.984047 -0.090940
v 0.038387 -0.282605 -0.223627
vn -0.029301 0.579108 -0.814724
v 0.050737 0.145552 0.007994
vn -0.501468 0.399863 0.767228
v 0.018307 0.066671 0.428151
vn -0.727785 0.421626 0.540889
v -0.005423 0.160971 0.318930
vn -0.071020 -0.326316 -0.942589
v 0.028838 -0.218992 0.113778
vn 0.077494 -0.063743 0.994953
v 0.025817 -0.036285 -0.152273
vn -0.617032 -0.094039 -0.781299
v 0.022093 0.046965 0.210208
vn 0.390914 0.240272 0.888513
v 0.009514 0.125207 0.494577
vn -0.372894 -0.345504 0.861148
v -0.019928 -0.170027 0.044047
vn -0.455195 -0.847971 -0.271557
v -0.018608 0.177013 -0.194900
vn 0.631061 -0.502187 -0.591244
v 0.024034 0.239611 -0.351811
vn 0.176806 -0.875874 -0.448981
v 0.014420 -0.258885 -0.319539
vn -0.819107 -0.043560 0.571984
v -0.018014 0.022354 0.330789
vn -0.963410 -0.268024 0.002031
v -0.022369 0.126468 0.175653
vn 0.115193 0.650892 0.750380
v 0.017132 0.286495 -0.076538
vn -0.838823 0.543789 0.025880
v -0.012599 0.205611 0.203396
vn -0.997922 0.033670 -0.054939
v -0.035828 0.094872 0.275779
vn 0.500833 -0.842037 -0.200350
v 0.056575 0.153034 -0.282406
vn -0.530325 0.496061 0.687517
v 0.008623 0.248855 0.032380
vn -0.438958 0.831864 0.339584
v -0.005565 0.330568 -0.165548
vn 0.397620 -0.602014 0.692443
v 0.023140 -0.287040 0.408255
vn -0.868914 0.399809 -0.291790
v -0.023564 0.115992 0.037637
vn -0.093256 0.884345 0.457425
v -0.005006 -0.152873 0.272755
vn 0.276832 -0.765082 0.581389
v 0.025801 -0.003755 0.368130
vn -0.872482 -0.125111 0.472358
v -0.030811 0.046480 0.088158
vn -0.529825 -0.357868 0.768905
v 0.000994 0.153862 -0.063912
vn -0.984032 0.016621 0.177212
v -0.053873 0.240831 -0.157263
vn -0.077780 -0.996892 -0.012544
v 0.006330 -0.258321 -0.134250
vn -0.515876 0.624230 -0.586693
v -0.041591 0.072515 -0.265799
vn -0.723592 0.608173 0.326403
v -0.030071 -0.131956 0.195450
vn 0.910865 -0.325455 0.253778
v -0.023039 -0.106126 0.442139
vn -0.890068 0.248370 0.382220
v -0.076980 0.003802 -0.192500
vn 0.591820 -0.035125 0.805305
v -0.033601 -0.209763 0.424272
vn -0.113819 -0.914984 -0.387104
v -0.012327 -0.270627 0.170904
vn -0.624179 0.722311 0.297769
v -0.031922 0.307108 -0.118882
vn -0.403971 0.894473 -0.191636
v -0.034097 0.336784 -0.277146
vn 0.331688 0.893623 -0.302358
v 0.000261 0.188675 -0.315703
vn 0.138623 -0.357386 -0.923612
v -0.015987 0.313434 -0.423175
vn 0.748812 -0.279524 -0.600955
v 0.006994 0.138870 -0.369725
vn -0.523645 -0.093966 0.846739
v -0.065875 -0.171465 0.007040
vn 0.374541 -0.245430 -0.894138
v -0.037979 0.168090 -0.452527
vn 0.055030 -0.054962 0.996971
v -0.073250 -0.107103 0.477675
vn -0.573499 0.693449 0.436150
v -0.071025 -0.103572 -0.130268
vn -0.796618 -0.519289 0.309416
v -0.062978 0.157763 -0.155615
vn -0.256877 -0.422404 -0.869246
v -0.063620 -0.208601 -0.359991
vn 0.589557 0.419914 -0.689997
v -0.053504 -0.119658 0.357622
vn -0.603405 0.462520 0.649598
v -0.083878 -0.047533 0.457318
vn -0.069365 0.961678 -0.265262
v -0.082792 0.225246 -0.423712
vn -0.310816 0.353562 -0.882263
v -0.013092 -0.144852 0.141110
vn -0.396110 0.901652 -0.173552
v -0.048824 0.297664 -0.294336
vn -0.447337 0.293221 -0.844933
v -0.058724 -0.063442 -0.369755
vn -0.735993 -0.663997 -0.131992
v -0.125352 -0.229606 0.206962
vn -0.383196 -0.049181 -0.922357
v -0.061632 -0.198703 0.125581
vn -0.980598 -0.125590 -0.150515
v -0.119526 0.265949 -0.314718
vn -0.848819 0.503428 -0.161450
v -0.057048 -0.042506 -0.032767
vn -0.086817 -0.895853 0.435788
v -0.060850 -0.284053 -0.034009
vn -0.904910 0.416371 -0.088163
v -0.095395 -0.032430 -0.273311
vn -0.201969 -0.957440 -0.206197
v -0.041526 0.256808 -0.279357
vn -0.067385 -0.949998 0.304899
v -0.061277 -0.278482 0.373952
vn -0.105663 0.991396 0.077261
v -0.064432 0.339294 -0.382292
vn -0.113069 -0.982459 -0.148287
v -0.093473 -0.278525 -0.224864
vn 0.186413 0.831361 -0.523536
v -0.109588 -0.093423 0.210815
vn -0.419385 -0.903143 0.091922
v -0.119312 0.152839 -0.334551
vn -0.704723 0.678854 0.206212
v -0.097256 0.185193 -0.296910
vn 0.236273 0.192011 0.952527
v -0.151042 -0.104024 0.294333
vn -0.483188 -0.874298 -0.046184
v -0.130290 -0.284061 0.312303
vn -0.480698 -0.571111 0.665403
v -0.141866 -0.233882 0.418754
vn -0.684421 0.608784 -0.401186
v -0.098136 -0.038147 0.401253
vn -0.645504 0.201094 -0.736808
v -0.134851 -0.189585 -0.269273
vn -0.724955 0.666001 0.175734
v -0.148355 -0.115064 -0.164902
vn -0.938400 0.144395 -0.313936
v -0.141685 0.179568 -0.415512
vn -0.602727 0.651825 -0.460266
v -0.142528 -0.154573 0.334830
vn -0.894603 0.078249 0.439957
v -0.133110 -0.185864 0.262778
vn -0.184936 0.946299 0.265173
v -0.101103 0.004883 0.248232
vn -0.596380 0.227162 0.769888
v -0.126909 -0.240230 0.009297
vn -0.977111 -0.098184 -0.188715
v -0.164911 -0.227671 0.315655
vn -0.910643 0.208963 0.356460
v -0.158582 -0.151817 0.424556
vn -0.633015 -0.773582 -0.029377
v -0.170634 -0.282837 -0.049615
vn -0.444558 -0.673921 -0.590084
v -0.077391 -0.251602 0.173277
vn -0.307386 -0.896620 0.318726
v -0.132226 -0.207070 -0.164349
vn -0.978395 0.063785 -0.196661
v -0.194521 -0.101500 0.250020
vn -0.848744 0.477083 0.228092
v -0.176997 -0.154888 -0.166154
vn -0.396920 -0.491385 0.775239
v -0.197377 -0.274377 -0.150894
vn -0.298096 -0.610513 -0.733766
v -0.197731 -0.275143 -0.269519
vn -0.855554 0.384561 -0.346613
v -0.236446 -0.186568 -0.250858
# 137 vertices, 0 vertices normals

f 23//23 1//1 11//11
f 1//1 2//2 8//8
f 8//8 11//11 1//1
f 5//5 27//27 13//13
f 13//13 4//4 5//5
f 9//9 14//14 7//7
f 7//7 16//16 9//9
f 4//4 20//20 5//5
f 6//6 10//10 3//3
f 6//6 3//3 24//24
f 46//46 16//16 7//7
f 21//21 13//13 27//27
f 10//10 19//19 3//3
f 17//17 13//13 21//21
f 19//19 10//10 4//4
f 23//23 2//2 1//1
f 20//20 32//32 5//5
f 24//24 18//18 6//6
f 27//27 5//5 32//32
f 4//4 13//13 22//22
f 20//20 4//4 10//10
f 7//7 6//6 18//18
f 36//36 14//14 9//9
f 33//33 46//46 7//7
f 19//19 4//4 22//22
f 7//7 14//14 12//12
f 7//7 18//18 33//33
f 7//7 12//12 6//6
f 39//39 8//8 2//2
f 12//12 15//15 6//6
f 10//10 6//6 15//15
f 24//24 3//3 44//44
f 8//8 42//42 11//11
f 64//64 34//34 27//27
f 13//13 17//17 22//22
f 29//29 2//2 45//45
f 23//23 26//26 2//2
f 15//15 43//43 10//10
f 29//29 28//28 2//2
f 2//2 28//28 39//39
f 39//39 70//70 8//8
f 41//41 20//20 10//10
f 11//11 42//42 63//63
f 12//12 14//14 40//40
f 41//41 10//10 43//43
f 20//20 41//41 35//35
f 8//8 70//70 42//42
f 38//38 9//9 16//16
f 26//26 45//45 2//2
f 38//38 36//36 9//9
f 28//28 17//17 21//21
f 3//3 19//19 25//25
f 12//12 59//59 15//15
f 23//23 11//11 31//31
f 26//26 23//23 30//30
f 23//23 52//52 30//30
f 27//27 32//32 53//53
f 32//32 20//20 35//35
f 21//21 50//50 28//28
f 76//76 33//33 18//18
f 44//44 3//3 25//25
f 46//46 73//73 16//16
f 50//50 21//21 27//27
f 14//14 36//36 57//57
f 19//19 54//54 25//25
f 17//17 28//28 29//29
f 11//11 49//49 31//31
f 23//23 31//31 52//52
f 50//50 47//47 28//28
f 22//22 54//54 19//19
f 28//28 47//47 39//39
f 18//18 24//24 48//48
f 75//75 46//46 33//33
f 38//38 16//16 73//73
f 51//51 22//22 17//17
f 18//18 48//48 76//76
f 70//70 91//91 42//42
f 111//111 36//36 38//38
f 27//27 34//34 50//50
f 11//11 63//63 49//49
f 64//64 27//27 53//53
f 24//24 44//44 48//48
f 72//72 30//30 52//52
f 43//43 15//15 59//59
f 51//51 17//17 29//29
f 52//52 31//31 88//88
f 12//12 40//40 59//59
f 58//58 29//29 45//45
f 60//60 37//37 48//48
f 70//70 39//39 62//62
f 26//26 67//67 45//45
f 108//108 35//35 41//41
f 40//40 14//14 57//57
f 76//76 37//37 83//83
f 37//37 76//76 48//48
f 55//55 37//37 60//60
f 111//111 38//38 73//73
f 58//58 51//51 29//29
f 30//30 72//72 26//26
f 42//42 91//91 89//89
f 78//78 45//45 67//67
f 26//26 72//72 67//67
f 49//49 63//63 90//90
f 31//31 49//49 102//102
f 43//43 61//61 41//41
f 25//25 54//54 74//74
f 25//25 68//68 44//44
f 47//47 81//81 39//39
f 103//103 47//47 50//50
f 22//22 51//51 54//54
f 44//44 68//68 56//56
f 53//53 32//32 80//80
f 39//39 81//81 62//62
f 108//108 32//32 35//35
f 57//57 101//101 40//40
f 31//31 102//102 88//88
f 32//32 108//108 80//80
f 86//86 57//57 36//36
f 83//83 37//37 94//94
f 48//48 44//44 56//56
f 67//67 71//71 78//78
f 76//76 75//75 33//33
f 107//107 54//54 51//51
f 101//101 59//59 40//40
f 37//37 55//55 94//94
f 63//63 42//42 110//110
f 34//34 64//64 97//97
f 60//60 48//48 55//55
f 86//86 36//36 111//111
f 58//58 45//45 78//78
f 75//75 76//76 82//82
f 48//48 65//65 76//76
f 110//110 42//42 79//79
f 71//71 67//67 87//87
f 55//55 48//48 120//120
f 66//66 43//43 59//59
f 82//82 76//76 65//65
f 41//41 61//61 108//108
f 42//42 89//89 79//79
f 102//102 49//49 112//112
f 34//34 97//97 50//50
f 65//65 48//48 56//56
f 91//91 93//93 89//89
f 49//49 90//90 112//112
f 59//59 101//101 82//82
f 69//69 59//59 82//82
f 61//61 43//43 77//77
f 74//74 54//54 107//107
f 72//72 52//52 88//88
f 65//65 56//56 69//69
f 113//113 64//64 53//53
f 113//113 53//53 80//80
f 50//50 97//97 103//103
f 58//58 78//78 84//84
f 47//47 103//103 81//81
f 101//101 57//57 131//131
f 56//56 68//68 69//69
f 73//73 46//46 85//85
f 82//82 65//65 69//69
f 68//68 25//25 74//74
f 77//77 43//43 66//66
f 68//68 74//74 66//66
f 111//111 73//73 85//85
f 101//101 131//131 105//105
f 69//69 66//66 59//59
f 51//51 58//58 95//95
f 68//68 66//66 69//69
f 66//66 74//74 77//77
f 131//131 57//57 86//86
f 76//76 120//120 48//48
f 110//110 90//90 63//63
f 81//81 84//84 62//62
f 71//71 87//87 79//79
f 85//85 46//46 75//75
f 62//62 84//84 78//78
f 62//62 78//78 96//96
f 78//78 71//71 79//79
f 107//107 77//77 74//74
f 78//78 79//79 96//96
f 108//108 61//61 92//92
f 107//107 51//51 95//95
f 95//95 58//58 84//84
f 85//85 83//83 94//94
f 92//92 61//61 77//77
f 72//72 87//87 67//67
f 83//83 98//98 76//76
f 79//79 89//89 116//116
f 108//108 113//113 80//80
f 82//82 101//101 114//114
f 85//85 98//98 83//83
f 87//87 72//72 88//88
f 98//98 85//85 75//75
f 93//93 100//100 89//89
f 110//110 106//106 90//90
f 99//99 94//94 55//55
f 116//116 96//96 79//79
f 76//76 98//98 120//120
f 77//77 107//107 92//92
f 99//99 55//55 120//120
f 84//84 81//81 109//109
f 64//64 113//113 97//97
f 75//75 82//82 125//125
f 98//98 75//75 124//124
f 79//79 87//87 106//106
f 102//102 87//87 88//88
f 115//115 91//91 70//70
f 112//112 90//90 106//106
f 118//118 131//131 86//86
f 119//119 111//111 85//85
f 117//117 125//125 82//82
f 102//102 106//106 87//87
f 115//115 96//96 116//116
f 93//93 123//123 100//100
f 107//107 127//127 92//92
f 103//103 109//109 81//81
f 115//115 70//70 62//62
f 115//115 62//62 96//96
f 79//79 106//106 110//110
f 119//119 85//85 94//94
f 127//127 108//108 92//92
f 93//93 91//91 115//115
f 86//86 111//111 118//118
f 104//104 105//105 131//131
f 82//82 114//114 117//117
f 84//84 109//109 95//95
f 101//101 105//105 114//114
f 105//105 104//104 133//133
f 100//100 116//116 89//89
f 113//113 121//121 97//97
f 122//122 127//127 95//95
f 121//121 109//109 103//103
f 123//123 93//93 115//115
f 117//117 114//114 126//126
f 127//127 107//107 95//95
f 98//98 124//124 120//120
f 113//113 108//108 132//132
f 103//103 97//97 121//121
f 114//114 105//105 133//133
f 118//118 111//111 119//119
f 94//94 99//99 129//129
f 125//125 124//124 75//75
f 95//95 109//109 122//122
f 108//108 130//130 132//132
f 121//121 122//122 109//109
f 102//102 112//112 106//106
f 128//128 131//131 118//118
f 125//125 131//131 128//128
f 116//116 100//100 123//123
f 121//121 113//113 136//136
f 99//99 120//120 129//129
f 123//123 115//115 116//116
f 119//119 94//94 129//129
f 119//119 128//128 118//118
f 133//133 126//126 114//114
f 125//125 128//128 124//124
f 127//127 122//122 134//134
f 122//122 121//121 134//134
f 129//129 120//120 124//124
f 108//108 127//127 130//130
f 104//104 131//131 125//125
f 128//128 129//129 124//124
f 130//130 127//127 134//134
f 132//132 135//135 113//113
f 128//128 119//119 129//129
f 132//132 130//130 134//134
f 113//113 135//135 136//136
f 133//133 104//104 125//125
f 125//125 117//117 133//133
f 134//134 135//135 132//132
f 133//133 117//117 126//126
f 135//135 134//134 137//137
f 134//134 121//121 137//137
f 135//135 137//137 136//136
f 136//136 137//137 121//121
# 274 faces, 0 coords texture

# End of File
